<svg width="18" height="18" viewBox="0 0 18 18" fill="none" xmlns="http://www.w3.org/2000/svg">
<path d="M15 8.25H3C2.5875 8.25 2.25 8.5875 2.25 9C2.25 9.4125 2.5875 9.75 3 9.75H15C15.4125 9.75 15.75 9.4125 15.75 9C15.75 8.5875 15.4125 8.25 15 8.25ZM3 13.5H10.5C10.9125 13.5 11.25 13.1625 11.25 12.75C11.25 12.3375 10.9125 12 10.5 12H3C2.5875 12 2.25 12.3375 2.25 12.75C2.25 13.1625 2.5875 13.5 3 13.5ZM15 4.5H3C2.5875 4.5 2.25 4.8375 2.25 5.25V5.2575C2.25 5.67 2.5875 6.0075 3 6.0075H15C15.4125 6.0075 15.75 5.67 15.75 5.2575V5.25C15.75 4.8375 15.4125 4.5 15 4.5Z" fill="#2F8DEE"/>
</svg>
